<?xml version="1.0" encoding="UTF-8" standalone="no"?>
<!DOCTYPE svg PUBLIC "-//W3C//DTD SVG 1.1//EN"
 "http://www.w3.org/Graphics/SVG/1.1/DTD/svg11.dtd">
<!-- Generated by graphviz version 10.0.1 (20240210.2158)
 -->
<!-- Title: G Pages: 1 -->
<svg width="1286pt" height="501pt"
 viewBox="0.00 0.00 1285.95 500.83" xmlns="http://www.w3.org/2000/svg" xmlns:xlink="http://www.w3.org/1999/xlink">
<g id="graph0" class="graph" transform="scale(1 1) rotate(0) translate(21.6 479.23)">
<title>G</title>
<polygon fill="#111111" stroke="none" points="-21.6,21.6 -21.6,-479.23 1264.35,-479.23 1264.35,21.6 -21.6,21.6"/>
<!-- App.js -->
<g id="node1" class="node">
<title>App.js</title>
<path fill="none" stroke="#c6c5fe" d="M224.08,-199.5C224.08,-199.5 183.92,-199.5 183.92,-199.5 179.83,-199.5 175.75,-195.42 175.75,-191.33 175.75,-191.33 175.75,-183.17 175.75,-183.17 175.75,-179.08 179.83,-175 183.92,-175 183.92,-175 224.08,-175 224.08,-175 228.17,-175 232.25,-179.08 232.25,-183.17 232.25,-183.17 232.25,-191.33 232.25,-191.33 232.25,-195.42 228.17,-199.5 224.08,-199.5"/>
<text text-anchor="middle" x="204" y="-182.2" font-family="Arial" font-size="14.00" fill="#c6c5fe">App.js</text>
</g>
<!-- Context/MainPageContext.js -->
<g id="node2" class="node">
<title>Context/MainPageContext.js</title>
<path fill="none" stroke="#cfffac" d="M1234.58,-311.5C1234.58,-311.5 1056.42,-311.5 1056.42,-311.5 1052.33,-311.5 1048.25,-307.42 1048.25,-303.33 1048.25,-303.33 1048.25,-295.17 1048.25,-295.17 1048.25,-291.08 1052.33,-287 1056.42,-287 1056.42,-287 1234.58,-287 1234.58,-287 1238.67,-287 1242.75,-291.08 1242.75,-295.17 1242.75,-295.17 1242.75,-303.33 1242.75,-303.33 1242.75,-307.42 1238.67,-311.5 1234.58,-311.5"/>
<text text-anchor="middle" x="1145.5" y="-294.2" font-family="Arial" font-size="14.00" fill="#cfffac">Context/MainPageContext.js</text>
</g>
<!-- App.js&#45;&gt;Context/MainPageContext.js -->
<g id="edge1" class="edge">
<title>App.js&#45;&gt;Context/MainPageContext.js</title>
<path fill="none" stroke="#757575" d="M219.46,-199.99C265.13,-239.33 411.92,-358.85 558,-403.25 751.21,-461.97 822.95,-483.58 1012.25,-413.25 1062.07,-394.74 1105.68,-348.11 1128.22,-320.56"/>
<polygon fill="#757575" stroke="#757575" points="1130.85,-322.88 1134.35,-312.88 1125.38,-318.51 1130.85,-322.88"/>
</g>
<!-- components/RouteProtection.js -->
<g id="node3" class="node">
<title>components/RouteProtection.js</title>
<path fill="none" stroke="#cfffac" d="M513.83,-178.5C513.83,-178.5 314.67,-178.5 314.67,-178.5 310.58,-178.5 306.5,-174.42 306.5,-170.33 306.5,-170.33 306.5,-162.17 306.5,-162.17 306.5,-158.08 310.58,-154 314.67,-154 314.67,-154 513.83,-154 513.83,-154 517.92,-154 522,-158.08 522,-162.17 522,-162.17 522,-170.33 522,-170.33 522,-174.42 517.92,-178.5 513.83,-178.5"/>
<text text-anchor="middle" x="414.25" y="-161.2" font-family="Arial" font-size="14.00" fill="#cfffac">components/RouteProtection.js</text>
</g>
<!-- App.js&#45;&gt;components/RouteProtection.js -->
<g id="edge2" class="edge">
<title>App.js&#45;&gt;components/RouteProtection.js</title>
<path fill="none" stroke="#757575" d="M232.65,-184.46C249.27,-182.79 271.69,-180.53 295.06,-178.17"/>
<polygon fill="#757575" stroke="#757575" points="295.12,-181.68 304.71,-177.19 294.41,-174.72 295.12,-181.68"/>
</g>
<!-- pages/ChatPage.js -->
<g id="node4" class="node">
<title>pages/ChatPage.js</title>
<path fill="none" stroke="#c6c5fe" d="M474.46,-221.5C474.46,-221.5 354.04,-221.5 354.04,-221.5 349.96,-221.5 345.88,-217.42 345.88,-213.33 345.88,-213.33 345.88,-205.17 345.88,-205.17 345.88,-201.08 349.96,-197 354.04,-197 354.04,-197 474.46,-197 474.46,-197 478.54,-197 482.62,-201.08 482.62,-205.17 482.62,-205.17 482.62,-213.33 482.62,-213.33 482.62,-217.42 478.54,-221.5 474.46,-221.5"/>
<text text-anchor="middle" x="414.25" y="-204.2" font-family="Arial" font-size="14.00" fill="#c6c5fe">pages/ChatPage.js</text>
</g>
<!-- App.js&#45;&gt;pages/ChatPage.js -->
<g id="edge3" class="edge">
<title>App.js&#45;&gt;pages/ChatPage.js</title>
<path fill="none" stroke="#757575" d="M232.65,-190.17C258.51,-192.9 298.39,-197.12 334.1,-200.89"/>
<polygon fill="#757575" stroke="#757575" points="333.71,-204.37 344.03,-201.94 334.45,-197.41 333.71,-204.37"/>
</g>
<!-- pages/RegisterLoginPage.js -->
<g id="node5" class="node">
<title>pages/RegisterLoginPage.js</title>
<path fill="none" stroke="#c6c5fe" d="M504.46,-64.5C504.46,-64.5 324.04,-64.5 324.04,-64.5 319.96,-64.5 315.88,-60.42 315.88,-56.33 315.88,-56.33 315.88,-48.17 315.88,-48.17 315.88,-44.08 319.96,-40 324.04,-40 324.04,-40 504.46,-40 504.46,-40 508.54,-40 512.62,-44.08 512.62,-48.17 512.62,-48.17 512.62,-56.33 512.62,-56.33 512.62,-60.42 508.54,-64.5 504.46,-64.5"/>
<text text-anchor="middle" x="414.25" y="-47.2" font-family="Arial" font-size="14.00" fill="#c6c5fe">pages/RegisterLoginPage.js</text>
</g>
<!-- App.js&#45;&gt;pages/RegisterLoginPage.js -->
<g id="edge4" class="edge">
<title>App.js&#45;&gt;pages/RegisterLoginPage.js</title>
<path fill="none" stroke="#757575" d="M232.65,-180.28C244.68,-176.67 258.69,-171.65 270.5,-165.25 318.18,-139.4 366.08,-97.43 392.48,-72.57"/>
<polygon fill="#757575" stroke="#757575" points="394.67,-75.32 399.48,-65.89 389.83,-70.26 394.67,-75.32"/>
</g>
<!-- pages/ChatPage.js&#45;&gt;Context/MainPageContext.js -->
<g id="edge23" class="edge">
<title>pages/ChatPage.js&#45;&gt;Context/MainPageContext.js</title>
<path fill="none" stroke="#757575" d="M422.6,-221.85C440.95,-251.95 492.1,-327.91 558,-359.25 740.48,-446.04 817.46,-432 1012.25,-378.25 1053.86,-366.77 1095.56,-338.37 1120.71,-318.94"/>
<polygon fill="#757575" stroke="#757575" points="1122.64,-321.88 1128.31,-312.93 1118.3,-316.39 1122.64,-321.88"/>
</g>
<!-- Styles/ChatPage.css -->
<g id="node8" class="node">
<title>Styles/ChatPage.css</title>
<path fill="none" stroke="#cfffac" d="M727.83,-104.5C727.83,-104.5 596.17,-104.5 596.17,-104.5 592.08,-104.5 588,-100.42 588,-96.33 588,-96.33 588,-88.17 588,-88.17 588,-84.08 592.08,-80 596.17,-80 596.17,-80 727.83,-80 727.83,-80 731.92,-80 736,-84.08 736,-88.17 736,-88.17 736,-96.33 736,-96.33 736,-100.42 731.92,-104.5 727.83,-104.5"/>
<text text-anchor="middle" x="662" y="-87.2" font-family="Arial" font-size="14.00" fill="#cfffac">Styles/ChatPage.css</text>
</g>
<!-- pages/ChatPage.js&#45;&gt;Styles/ChatPage.css -->
<g id="edge24" class="edge">
<title>pages/ChatPage.js&#45;&gt;Styles/ChatPage.css</title>
<path fill="none" stroke="#757575" d="M483.04,-204.82C496.96,-201.41 510.77,-195.93 522,-187.25 550.62,-165.13 529.46,-136.47 558,-114.25 563.68,-109.83 570.05,-106.24 576.76,-103.35"/>
<polygon fill="#757575" stroke="#757575" points="577.97,-106.63 586.13,-99.87 575.53,-100.07 577.97,-106.63"/>
</g>
<!-- components/ChatBox.js -->
<g id="node12" class="node">
<title>components/ChatBox.js</title>
<path fill="none" stroke="#c6c5fe" d="M737.21,-350.5C737.21,-350.5 586.79,-350.5 586.79,-350.5 582.71,-350.5 578.62,-346.42 578.62,-342.33 578.62,-342.33 578.62,-334.17 578.62,-334.17 578.62,-330.08 582.71,-326 586.79,-326 586.79,-326 737.21,-326 737.21,-326 741.29,-326 745.38,-330.08 745.38,-334.17 745.38,-334.17 745.38,-342.33 745.38,-342.33 745.38,-346.42 741.29,-350.5 737.21,-350.5"/>
<text text-anchor="middle" x="662" y="-333.2" font-family="Arial" font-size="14.00" fill="#c6c5fe">components/ChatBox.js</text>
</g>
<!-- pages/ChatPage.js&#45;&gt;components/ChatBox.js -->
<g id="edge25" class="edge">
<title>pages/ChatPage.js&#45;&gt;components/ChatBox.js</title>
<path fill="none" stroke="#757575" d="M439.26,-221.85C483.12,-244.88 576.32,-293.8 626.8,-320.3"/>
<polygon fill="#757575" stroke="#757575" points="625.07,-323.34 635.55,-324.89 628.32,-317.14 625.07,-323.34"/>
</g>
<!-- components/Matches.js -->
<g id="node14" class="node">
<title>components/Matches.js</title>
<path fill="none" stroke="#c6c5fe" d="M736.83,-252.5C736.83,-252.5 587.17,-252.5 587.17,-252.5 583.08,-252.5 579,-248.42 579,-244.33 579,-244.33 579,-236.17 579,-236.17 579,-232.08 583.08,-228 587.17,-228 587.17,-228 736.83,-228 736.83,-228 740.92,-228 745,-232.08 745,-236.17 745,-236.17 745,-244.33 745,-244.33 745,-248.42 740.92,-252.5 736.83,-252.5"/>
<text text-anchor="middle" x="662" y="-235.2" font-family="Arial" font-size="14.00" fill="#c6c5fe">components/Matches.js</text>
</g>
<!-- pages/ChatPage.js&#45;&gt;components/Matches.js -->
<g id="edge26" class="edge">
<title>pages/ChatPage.js&#45;&gt;components/Matches.js</title>
<path fill="none" stroke="#757575" d="M483.05,-217.8C509.14,-221.09 539.4,-224.91 567.49,-228.45"/>
<polygon fill="#757575" stroke="#757575" points="566.69,-231.88 577.05,-229.66 567.56,-224.94 566.69,-231.88"/>
</g>
<!-- components/Profile.js -->
<g id="node16" class="node">
<title>components/Profile.js</title>
<path fill="none" stroke="#c6c5fe" d="M730.83,-147.5C730.83,-147.5 593.17,-147.5 593.17,-147.5 589.08,-147.5 585,-143.42 585,-139.33 585,-139.33 585,-131.17 585,-131.17 585,-127.08 589.08,-123 593.17,-123 593.17,-123 730.83,-123 730.83,-123 734.92,-123 739,-127.08 739,-131.17 739,-131.17 739,-139.33 739,-139.33 739,-143.42 734.92,-147.5 730.83,-147.5"/>
<text text-anchor="middle" x="662" y="-130.2" font-family="Arial" font-size="14.00" fill="#c6c5fe">components/Profile.js</text>
</g>
<!-- pages/ChatPage.js&#45;&gt;components/Profile.js -->
<g id="edge27" class="edge">
<title>pages/ChatPage.js&#45;&gt;components/Profile.js</title>
<path fill="none" stroke="#757575" d="M482.96,-200.52C496.3,-197.37 509.9,-193.08 522,-187.25 540.76,-178.21 539.27,-166.36 558,-157.25 563.11,-154.76 568.5,-152.56 574.02,-150.6"/>
<polygon fill="#757575" stroke="#757575" points="574.89,-154 583.33,-147.6 572.74,-147.34 574.89,-154"/>
</g>
<!-- components/ProfileMatched.js -->
<g id="node18" class="node">
<title>components/ProfileMatched.js</title>
<path fill="none" stroke="#c6c5fe" d="M757.83,-190.5C757.83,-190.5 566.17,-190.5 566.17,-190.5 562.08,-190.5 558,-186.42 558,-182.33 558,-182.33 558,-174.17 558,-174.17 558,-170.08 562.08,-166 566.17,-166 566.17,-166 757.83,-166 757.83,-166 761.92,-166 766,-170.08 766,-174.17 766,-174.17 766,-182.33 766,-182.33 766,-186.42 761.92,-190.5 757.83,-190.5"/>
<text text-anchor="middle" x="662" y="-173.2" font-family="Arial" font-size="14.00" fill="#c6c5fe">components/ProfileMatched.js</text>
</g>
<!-- pages/ChatPage.js&#45;&gt;components/ProfileMatched.js -->
<g id="edge28" class="edge">
<title>pages/ChatPage.js&#45;&gt;components/ProfileMatched.js</title>
<path fill="none" stroke="#757575" d="M483.05,-200.7C503.47,-198.12 526.45,-195.22 548.94,-192.39"/>
<polygon fill="#757575" stroke="#757575" points="549.29,-195.87 558.78,-191.14 548.42,-188.92 549.29,-195.87"/>
</g>
<!-- Styles/RegisterPage.css -->
<g id="node11" class="node">
<title>Styles/RegisterPage.css</title>
<path fill="none" stroke="#cfffac" d="M985.33,-24.5C985.33,-24.5 828.92,-24.5 828.92,-24.5 824.83,-24.5 820.75,-20.42 820.75,-16.33 820.75,-16.33 820.75,-8.17 820.75,-8.17 820.75,-4.08 824.83,0 828.92,0 828.92,0 985.33,0 985.33,0 989.42,0 993.5,-4.08 993.5,-8.17 993.5,-8.17 993.5,-16.33 993.5,-16.33 993.5,-20.42 989.42,-24.5 985.33,-24.5"/>
<text text-anchor="middle" x="907.12" y="-7.2" font-family="Arial" font-size="14.00" fill="#cfffac">Styles/RegisterPage.css</text>
</g>
<!-- pages/RegisterLoginPage.js&#45;&gt;Styles/RegisterPage.css -->
<g id="edge30" class="edge">
<title>pages/RegisterLoginPage.js&#45;&gt;Styles/RegisterPage.css</title>
<path fill="none" stroke="#757575" d="M512.96,-49.44C583.43,-46.8 680.76,-41.93 766,-33.25 783.16,-31.5 801.44,-29.14 818.93,-26.62"/>
<polygon fill="#757575" stroke="#757575" points="819.41,-30.09 828.8,-25.17 818.39,-23.16 819.41,-30.09"/>
</g>
<!-- pages/ProfileSetting.js -->
<g id="node22" class="node">
<title>pages/ProfileSetting.js</title>
<path fill="none" stroke="#c6c5fe" d="M733.46,-24.5C733.46,-24.5 590.54,-24.5 590.54,-24.5 586.46,-24.5 582.38,-20.42 582.38,-16.33 582.38,-16.33 582.38,-8.17 582.38,-8.17 582.38,-4.08 586.46,0 590.54,0 590.54,0 733.46,0 733.46,0 737.54,0 741.62,-4.08 741.62,-8.17 741.62,-8.17 741.62,-16.33 741.62,-16.33 741.62,-20.42 737.54,-24.5 733.46,-24.5"/>
<text text-anchor="middle" x="662" y="-7.2" font-family="Arial" font-size="14.00" fill="#c6c5fe">pages/ProfileSetting.js</text>
</g>
<!-- pages/RegisterLoginPage.js&#45;&gt;pages/ProfileSetting.js -->
<g id="edge31" class="edge">
<title>pages/RegisterLoginPage.js&#45;&gt;pages/ProfileSetting.js</title>
<path fill="none" stroke="#757575" d="M493.34,-39.54C518.2,-35.49 545.88,-30.99 571.48,-26.82"/>
<polygon fill="#757575" stroke="#757575" points="571.89,-30.3 581.19,-25.24 570.76,-23.39 571.89,-30.3"/>
</g>
<!-- App.test.js -->
<g id="node6" class="node">
<title>App.test.js</title>
<path fill="none" stroke="#c6c5fe" d="M84.33,-199.5C84.33,-199.5 17.17,-199.5 17.17,-199.5 13.08,-199.5 9,-195.42 9,-191.33 9,-191.33 9,-183.17 9,-183.17 9,-179.08 13.08,-175 17.17,-175 17.17,-175 84.33,-175 84.33,-175 88.42,-175 92.5,-179.08 92.5,-183.17 92.5,-183.17 92.5,-191.33 92.5,-191.33 92.5,-195.42 88.42,-199.5 84.33,-199.5"/>
<text text-anchor="middle" x="50.75" y="-182.2" font-family="Arial" font-size="14.00" fill="#c6c5fe">App.test.js</text>
</g>
<!-- App.test.js&#45;&gt;App.js -->
<g id="edge5" class="edge">
<title>App.test.js&#45;&gt;App.js</title>
<path fill="none" stroke="#757575" d="M92.68,-187.25C114.93,-187.25 142.29,-187.25 164.2,-187.25"/>
<polygon fill="#757575" stroke="#757575" points="163.91,-190.75 173.91,-187.25 163.91,-183.75 163.91,-190.75"/>
</g>
<!-- Styles/ChatBox.css -->
<g id="node7" class="node">
<title>Styles/ChatBox.css</title>
<path fill="none" stroke="#cfffac" d="M968.46,-350.5C968.46,-350.5 845.79,-350.5 845.79,-350.5 841.71,-350.5 837.62,-346.42 837.62,-342.33 837.62,-342.33 837.62,-334.17 837.62,-334.17 837.62,-330.08 841.71,-326 845.79,-326 845.79,-326 968.46,-326 968.46,-326 972.54,-326 976.62,-330.08 976.62,-334.17 976.62,-334.17 976.62,-342.33 976.62,-342.33 976.62,-346.42 972.54,-350.5 968.46,-350.5"/>
<text text-anchor="middle" x="907.12" y="-333.2" font-family="Arial" font-size="14.00" fill="#cfffac">Styles/ChatBox.css</text>
</g>
<!-- Styles/MatchCard.css -->
<g id="node9" class="node">
<title>Styles/MatchCard.css</title>
<path fill="none" stroke="#cfffac" d="M1213.96,-268.5C1213.96,-268.5 1077.04,-268.5 1077.04,-268.5 1072.96,-268.5 1068.88,-264.42 1068.88,-260.33 1068.88,-260.33 1068.88,-252.17 1068.88,-252.17 1068.88,-248.08 1072.96,-244 1077.04,-244 1077.04,-244 1213.96,-244 1213.96,-244 1218.04,-244 1222.12,-248.08 1222.12,-252.17 1222.12,-252.17 1222.12,-260.33 1222.12,-260.33 1222.12,-264.42 1218.04,-268.5 1213.96,-268.5"/>
<text text-anchor="middle" x="1145.5" y="-251.2" font-family="Arial" font-size="14.00" fill="#cfffac">Styles/MatchCard.css</text>
</g>
<!-- Styles/ProfileCard.css -->
<g id="node10" class="node">
<title>Styles/ProfileCard.css</title>
<path fill="none" stroke="#cfffac" d="M977.46,-104.5C977.46,-104.5 836.79,-104.5 836.79,-104.5 832.71,-104.5 828.62,-100.42 828.62,-96.33 828.62,-96.33 828.62,-88.17 828.62,-88.17 828.62,-84.08 832.71,-80 836.79,-80 836.79,-80 977.46,-80 977.46,-80 981.54,-80 985.62,-84.08 985.62,-88.17 985.62,-88.17 985.62,-96.33 985.62,-96.33 985.62,-100.42 981.54,-104.5 977.46,-104.5"/>
<text text-anchor="middle" x="907.12" y="-87.2" font-family="Arial" font-size="14.00" fill="#cfffac">Styles/ProfileCard.css</text>
</g>
<!-- components/ChatBox.js&#45;&gt;Context/MainPageContext.js -->
<g id="edge6" class="edge">
<title>components/ChatBox.js&#45;&gt;Context/MainPageContext.js</title>
<path fill="none" stroke="#757575" d="M719.67,-350.98C789.36,-364.51 910.87,-381.17 1012.25,-359.25 1049.07,-351.29 1087.96,-332.18 1113.96,-317.65"/>
<polygon fill="#757575" stroke="#757575" points="1115.68,-320.7 1122.62,-312.7 1112.2,-314.62 1115.68,-320.7"/>
</g>
<!-- components/ChatBox.js&#45;&gt;Styles/ChatBox.css -->
<g id="edge7" class="edge">
<title>components/ChatBox.js&#45;&gt;Styles/ChatBox.css</title>
<path fill="none" stroke="#757575" d="M745.65,-338.25C771.67,-338.25 800.35,-338.25 826.18,-338.25"/>
<polygon fill="#757575" stroke="#757575" points="825.93,-341.75 835.93,-338.25 825.93,-334.75 825.93,-341.75"/>
</g>
<!-- components/Match.js -->
<g id="node13" class="node">
<title>components/Match.js</title>
<path fill="none" stroke="#c6c5fe" d="M974.08,-270.5C974.08,-270.5 840.17,-270.5 840.17,-270.5 836.08,-270.5 832,-266.42 832,-262.33 832,-262.33 832,-254.17 832,-254.17 832,-250.08 836.08,-246 840.17,-246 840.17,-246 974.08,-246 974.08,-246 978.17,-246 982.25,-250.08 982.25,-254.17 982.25,-254.17 982.25,-262.33 982.25,-262.33 982.25,-266.42 978.17,-270.5 974.08,-270.5"/>
<text text-anchor="middle" x="907.12" y="-253.2" font-family="Arial" font-size="14.00" fill="#c6c5fe">components/Match.js</text>
</g>
<!-- components/Match.js&#45;&gt;Context/MainPageContext.js -->
<g id="edge8" class="edge">
<title>components/Match.js&#45;&gt;Context/MainPageContext.js</title>
<path fill="none" stroke="#757575" d="M981.62,-271C1006.41,-275.3 1034.28,-280.13 1059.86,-284.57"/>
<polygon fill="#757575" stroke="#757575" points="1059.11,-287.99 1069.56,-286.25 1060.3,-281.09 1059.11,-287.99"/>
</g>
<!-- components/Match.js&#45;&gt;Styles/MatchCard.css -->
<g id="edge9" class="edge">
<title>components/Match.js&#45;&gt;Styles/MatchCard.css</title>
<path fill="none" stroke="#757575" d="M982.59,-257.62C1006.31,-257.42 1032.76,-257.2 1057.29,-256.99"/>
<polygon fill="#757575" stroke="#757575" points="1057.3,-260.49 1067.27,-256.9 1057.24,-253.49 1057.3,-260.49"/>
</g>
<!-- components/Matches.js&#45;&gt;Context/MainPageContext.js -->
<g id="edge10" class="edge">
<title>components/Matches.js&#45;&gt;Context/MainPageContext.js</title>
<path fill="none" stroke="#757575" d="M699.97,-252.97C727.7,-261.93 766.77,-273.35 802,-279.25 879.91,-292.3 969.01,-297.19 1036.8,-298.88"/>
<polygon fill="#757575" stroke="#757575" points="1036.33,-302.37 1046.41,-299.1 1036.49,-295.37 1036.33,-302.37"/>
</g>
<!-- components/Matches.js&#45;&gt;components/Match.js -->
<g id="edge11" class="edge">
<title>components/Matches.js&#45;&gt;components/Match.js</title>
<path fill="none" stroke="#757575" d="M745.31,-246.34C769.45,-248.13 795.91,-250.09 820.26,-251.89"/>
<polygon fill="#757575" stroke="#757575" points="819.92,-255.38 830.15,-252.63 820.44,-248.4 819.92,-255.38"/>
</g>
<!-- handlers/cardHandlers.js -->
<g id="node15" class="node">
<title>handlers/cardHandlers.js</title>
<path fill="none" stroke="#cfffac" d="M984.96,-227.5C984.96,-227.5 829.29,-227.5 829.29,-227.5 825.21,-227.5 821.12,-223.42 821.12,-219.33 821.12,-219.33 821.12,-211.17 821.12,-211.17 821.12,-207.08 825.21,-203 829.29,-203 829.29,-203 984.96,-203 984.96,-203 989.04,-203 993.12,-207.08 993.12,-211.17 993.12,-211.17 993.12,-219.33 993.12,-219.33 993.12,-223.42 989.04,-227.5 984.96,-227.5"/>
<text text-anchor="middle" x="907.12" y="-210.2" font-family="Arial" font-size="14.00" fill="#cfffac">handlers/cardHandlers.js</text>
</g>
<!-- components/Matches.js&#45;&gt;handlers/cardHandlers.js -->
<g id="edge12" class="edge">
<title>components/Matches.js&#45;&gt;handlers/cardHandlers.js</title>
<path fill="none" stroke="#757575" d="M745.31,-231.79C765.98,-229.66 788.34,-227.36 809.64,-225.17"/>
<polygon fill="#757575" stroke="#757575" points="809.9,-228.66 819.49,-224.16 809.18,-221.7 809.9,-228.66"/>
</g>
<!-- components/Profile.js&#45;&gt;Context/MainPageContext.js -->
<g id="edge13" class="edge">
<title>components/Profile.js&#45;&gt;Context/MainPageContext.js</title>
<path fill="none" stroke="#757575" d="M739.41,-124.86C748.72,-121.9 757.83,-118.11 766,-113.25 787.13,-100.69 779.66,-81.52 802,-71.25 886.9,-32.2 940.71,-11.13 1012.25,-71.25 1083.4,-131.05 984.25,-209.85 1048.25,-277.25 1049.11,-278.15 1049.99,-279.02 1050.9,-279.85"/>
<polygon fill="#757575" stroke="#757575" points="1048.45,-282.39 1058.54,-285.62 1052.67,-276.8 1048.45,-282.39"/>
</g>
<!-- components/Profile.js&#45;&gt;Styles/ProfileCard.css -->
<g id="edge14" class="edge">
<title>components/Profile.js&#45;&gt;Styles/ProfileCard.css</title>
<path fill="none" stroke="#757575" d="M734.96,-122.52C762.65,-117.63 794.48,-112 823.13,-106.93"/>
<polygon fill="#757575" stroke="#757575" points="823.62,-110.4 832.86,-105.21 822.4,-103.5 823.62,-110.4"/>
</g>
<!-- handlers/InteractionHandlers.js -->
<g id="node17" class="node">
<title>handlers/InteractionHandlers.js</title>
<path fill="none" stroke="#cfffac" d="M1004.08,-147.5C1004.08,-147.5 810.17,-147.5 810.17,-147.5 806.08,-147.5 802,-143.42 802,-139.33 802,-139.33 802,-131.17 802,-131.17 802,-127.08 806.08,-123 810.17,-123 810.17,-123 1004.08,-123 1004.08,-123 1008.17,-123 1012.25,-127.08 1012.25,-131.17 1012.25,-131.17 1012.25,-139.33 1012.25,-139.33 1012.25,-143.42 1008.17,-147.5 1004.08,-147.5"/>
<text text-anchor="middle" x="907.12" y="-130.2" font-family="Arial" font-size="14.00" fill="#cfffac">handlers/InteractionHandlers.js</text>
</g>
<!-- components/Profile.js&#45;&gt;handlers/InteractionHandlers.js -->
<g id="edge15" class="edge">
<title>components/Profile.js&#45;&gt;handlers/InteractionHandlers.js</title>
<path fill="none" stroke="#757575" d="M739.26,-135.25C755.48,-135.25 772.96,-135.25 790.28,-135.25"/>
<polygon fill="#757575" stroke="#757575" points="790.11,-138.75 800.11,-135.25 790.11,-131.75 790.11,-138.75"/>
</g>
<!-- components/ProfileMatched.js&#45;&gt;Context/MainPageContext.js -->
<g id="edge16" class="edge">
<title>components/ProfileMatched.js&#45;&gt;Context/MainPageContext.js</title>
<path fill="none" stroke="#757575" d="M766.4,-171.23C854.82,-167.32 973.71,-167.68 1012.25,-194.25 1045.35,-217.08 1017.32,-251.56 1048.25,-277.25 1049.93,-278.65 1051.68,-279.96 1053.5,-281.19"/>
<polygon fill="#757575" stroke="#757575" points="1051.29,-283.96 1061.7,-285.95 1054.81,-277.9 1051.29,-283.96"/>
</g>
<!-- components/ProfileMatched.js&#45;&gt;Styles/ProfileCard.css -->
<g id="edge17" class="edge">
<title>components/ProfileMatched.js&#45;&gt;Styles/ProfileCard.css</title>
<path fill="none" stroke="#757575" d="M746.08,-165.58C753.05,-163.02 759.79,-159.94 766,-156.25 787.13,-143.69 780.85,-126.79 802,-114.25 806.94,-111.32 812.21,-108.78 817.67,-106.57"/>
<polygon fill="#757575" stroke="#757575" points="818.7,-109.92 826.92,-103.25 816.33,-103.34 818.7,-109.92"/>
</g>
<!-- components/ProfileMatched.js&#45;&gt;handlers/cardHandlers.js -->
<g id="edge19" class="edge">
<title>components/ProfileMatched.js&#45;&gt;handlers/cardHandlers.js</title>
<path fill="none" stroke="#757575" d="M746.67,-190.98C767.51,-194.16 790,-197.58 811.34,-200.82"/>
<polygon fill="#757575" stroke="#757575" points="810.8,-204.28 821.22,-202.33 811.86,-197.36 810.8,-204.28"/>
</g>
<!-- components/ProfileMatched.js&#45;&gt;handlers/InteractionHandlers.js -->
<g id="edge18" class="edge">
<title>components/ProfileMatched.js&#45;&gt;handlers/InteractionHandlers.js</title>
<path fill="none" stroke="#757575" d="M734.96,-165.52C762.65,-160.63 794.48,-155 823.13,-149.93"/>
<polygon fill="#757575" stroke="#757575" points="823.62,-153.4 832.86,-148.21 822.4,-146.5 823.62,-153.4"/>
</g>
<!-- index.css -->
<g id="node19" class="node">
<title>index.css</title>
<path fill="none" stroke="#cfffac" d="M233.83,-156.5C233.83,-156.5 174.17,-156.5 174.17,-156.5 170.08,-156.5 166,-152.42 166,-148.33 166,-148.33 166,-140.17 166,-140.17 166,-136.08 170.08,-132 174.17,-132 174.17,-132 233.83,-132 233.83,-132 237.92,-132 242,-136.08 242,-140.17 242,-140.17 242,-148.33 242,-148.33 242,-152.42 237.92,-156.5 233.83,-156.5"/>
<text text-anchor="middle" x="204" y="-139.2" font-family="Arial" font-size="14.00" fill="#cfffac">index.css</text>
</g>
<!-- index.js -->
<g id="node20" class="node">
<title>index.js</title>
<path fill="none" stroke="#c6c5fe" d="M74.58,-156.5C74.58,-156.5 26.92,-156.5 26.92,-156.5 22.83,-156.5 18.75,-152.42 18.75,-148.33 18.75,-148.33 18.75,-140.17 18.75,-140.17 18.75,-136.08 22.83,-132 26.92,-132 26.92,-132 74.58,-132 74.58,-132 78.67,-132 82.75,-136.08 82.75,-140.17 82.75,-140.17 82.75,-148.33 82.75,-148.33 82.75,-152.42 78.67,-156.5 74.58,-156.5"/>
<text text-anchor="middle" x="50.75" y="-139.2" font-family="Arial" font-size="14.00" fill="#c6c5fe">index.js</text>
</g>
<!-- index.js&#45;&gt;App.js -->
<g id="edge20" class="edge">
<title>index.js&#45;&gt;App.js</title>
<path fill="none" stroke="#757575" d="M83.09,-153.16C106.65,-159.86 139.07,-169.07 164.25,-176.23"/>
<polygon fill="#757575" stroke="#757575" points="163.23,-179.58 173.81,-178.95 165.14,-172.85 163.23,-179.58"/>
</g>
<!-- index.js&#45;&gt;index.css -->
<g id="edge21" class="edge">
<title>index.js&#45;&gt;index.css</title>
<path fill="none" stroke="#757575" d="M83.09,-144.25C103.59,-144.25 130.8,-144.25 154.12,-144.25"/>
<polygon fill="#757575" stroke="#757575" points="154.04,-147.75 164.04,-144.25 154.04,-140.75 154.04,-147.75"/>
</g>
<!-- reportWebVitals.js -->
<g id="node21" class="node">
<title>reportWebVitals.js</title>
<path fill="none" stroke="#cfffac" d="M262.33,-113.5C262.33,-113.5 145.67,-113.5 145.67,-113.5 141.58,-113.5 137.5,-109.42 137.5,-105.33 137.5,-105.33 137.5,-97.17 137.5,-97.17 137.5,-93.08 141.58,-89 145.67,-89 145.67,-89 262.33,-89 262.33,-89 266.42,-89 270.5,-93.08 270.5,-97.17 270.5,-97.17 270.5,-105.33 270.5,-105.33 270.5,-109.42 266.42,-113.5 262.33,-113.5"/>
<text text-anchor="middle" x="204" y="-96.2" font-family="Arial" font-size="14.00" fill="#cfffac">reportWebVitals.js</text>
</g>
<!-- index.js&#45;&gt;reportWebVitals.js -->
<g id="edge22" class="edge">
<title>index.js&#45;&gt;reportWebVitals.js</title>
<path fill="none" stroke="#757575" d="M83.09,-135.34C101.58,-130.08 125.53,-123.27 147.16,-117.12"/>
<polygon fill="#757575" stroke="#757575" points="148.1,-120.5 156.76,-114.39 146.19,-113.76 148.1,-120.5"/>
</g>
<!-- pages/ProfileSetting.js&#45;&gt;Styles/RegisterPage.css -->
<g id="edge29" class="edge">
<title>pages/ProfileSetting.js&#45;&gt;Styles/RegisterPage.css</title>
<path fill="none" stroke="#757575" d="M741.94,-12.25C763.4,-12.25 786.91,-12.25 809.24,-12.25"/>
<polygon fill="#757575" stroke="#757575" points="808.94,-15.75 818.94,-12.25 808.94,-8.75 808.94,-15.75"/>
</g>
<!-- setupProxy.js -->
<g id="node23" class="node">
<title>setupProxy.js</title>
<path fill="none" stroke="#cfffac" d="M93.33,-242.5C93.33,-242.5 8.17,-242.5 8.17,-242.5 4.08,-242.5 0,-238.42 0,-234.33 0,-234.33 0,-226.17 0,-226.17 0,-222.08 4.08,-218 8.17,-218 8.17,-218 93.33,-218 93.33,-218 97.42,-218 101.5,-222.08 101.5,-226.17 101.5,-226.17 101.5,-234.33 101.5,-234.33 101.5,-238.42 97.42,-242.5 93.33,-242.5"/>
<text text-anchor="middle" x="50.75" y="-225.2" font-family="Arial" font-size="14.00" fill="#cfffac">setupProxy.js</text>
</g>
<!-- setupTests.js -->
<g id="node24" class="node">
<title>setupTests.js</title>
<path fill="none" stroke="#cfffac" d="M93.33,-285.5C93.33,-285.5 8.17,-285.5 8.17,-285.5 4.08,-285.5 0,-281.42 0,-277.33 0,-277.33 0,-269.17 0,-269.17 0,-265.08 4.08,-261 8.17,-261 8.17,-261 93.33,-261 93.33,-261 97.42,-261 101.5,-265.08 101.5,-269.17 101.5,-269.17 101.5,-277.33 101.5,-277.33 101.5,-281.42 97.42,-285.5 93.33,-285.5"/>
<text text-anchor="middle" x="50.75" y="-268.2" font-family="Arial" font-size="14.00" fill="#cfffac">setupTests.js</text>
</g>
</g>
</svg>
